<svg xmlns="http://www.w3.org/2000/svg" version="1.1" xmlns:xlink="http://www.w3.org/1999/xlink" xmlns:svgjs="http://svgjs.com/svgjs" width="512" height="512" x="0" y="0" viewBox="0 0 32 32" style="enable-background:new 0 0 512 512" xml:space="preserve" class=""><g><g fill="#231f20"><path d="M3 10.5h2a7.63 7.63 0 0 1 5.57 2.43l1.3 1.4a1.5 1.5 0 0 0 2.2-2.05l-1.3-1.39A10.61 10.61 0 0 0 5 7.5H3a1.5 1.5 0 0 0 0 3z" fill="#ffffff" data-original="#231f20" class="" opacity="1"></path><path d="M26.82 4.7a1.5 1.5 0 1 0-2.12 2.12l.71.71a10.61 10.61 0 0 0-7.21 3.36l-7.6 8.18A7.63 7.63 0 0 1 5 21.5H3a1.5 1.5 0 0 0 0 3h2a10.61 10.61 0 0 0 7.77-3.39l7.6-8.18a7.65 7.65 0 0 1 5-2.4l-.65.65a1.49 1.49 0 0 0 0 2.12 1.46 1.46 0 0 0 1.06.44 1.47 1.47 0 0 0 1.06-.44l3.24-3.24a1.49 1.49 0 0 0 0-2.12z" fill="#ffffff" data-original="#231f20" class="" opacity="1"></path><path d="M26.82 18.7a1.5 1.5 0 1 0-2.12 2.12l.65.65a7.65 7.65 0 0 1-5-2.4l-1.3-1.4a1.5 1.5 0 0 0-2.2 2l1.3 1.39a10.61 10.61 0 0 0 7.21 3.36l-.71.71a1.49 1.49 0 0 0 0 2.12 1.46 1.46 0 0 0 1.06.44 1.47 1.47 0 0 0 1.06-.44l3.24-3.24a1.49 1.49 0 0 0 0-2.12z" fill="#ffffff" data-original="#231f20" class="" opacity="1"></path></g></g></svg>