<svg xmlns="http://www.w3.org/2000/svg" version="1.1" xmlns:xlink="http://www.w3.org/1999/xlink" xmlns:svgjs="http://svgjs.com/svgjs" width="512" height="512" x="0" y="0" viewBox="0 0 348.491 348.491" style="enable-background:new 0 0 512 512" xml:space="preserve" class=""><g><path d="M334.241 28.174c-8.757-4.617-19.361-4-27.54 1.586L125.586 153.723a23.899 23.899 0 0 0-10.395 19.639 23.904 23.904 0 0 0 10.28 19.697l181.098 125.566a26.689 26.689 0 0 0 27.602 1.707 26.682 26.682 0 0 0 14.32-23.654V51.797c0-9.895-5.487-18.988-14.25-23.623zM31.518 14.524C14.112 14.524 0 28.637 0 46.043v256.406c0 17.406 14.112 31.518 31.518 31.518s31.518-14.111 31.518-31.518V46.043c0-17.406-14.112-31.519-31.518-31.519z" fill="#ffffff" data-original="#000000" class="" opacity="1"></path></g></svg>