<svg width="24" height="27" viewBox="0 0 24 27" fill="none" xmlns="http://www.w3.org/2000/svg">
<g clip-path="url(#clip0_1_245)">
<path d="M12 16.0984C11.2044 16.0984 10.4413 16.4409 9.87868 17.0504C9.31607 17.6598 9 18.4865 9 19.3484V26.9599H15V19.3484C15 18.4865 14.6839 17.6598 14.1213 17.0504C13.5587 16.4409 12.7956 16.0984 12 16.0984Z" fill="white"/>
<path d="M13.338 1.83468C12.9707 1.47657 12.4941 1.27841 12 1.27841C11.5059 1.27841 11.0293 1.47657 10.662 1.83468L0 12.2303V23.497C0 24.4164 0.337142 25.2982 0.937258 25.9483C1.53737 26.5984 2.35131 26.9637 3.2 26.9637H7V19.3489C7 17.9123 7.52678 16.5346 8.46447 15.5188C9.40215 14.5029 10.6739 13.9323 12 13.9323C13.3261 13.9323 14.5979 14.5029 15.5355 15.5188C16.4732 16.5346 17 17.9123 17 19.3489V26.9604H20.8C21.6487 26.9604 22.4626 26.5952 23.0627 25.9451C23.6629 25.2949 24 24.4132 24 23.4938V12.2271L13.338 1.83468Z" fill="white"/>
</g>
<defs>
<clipPath id="clip0_1_245">
<rect width="24" height="26" fill="white" transform="translate(0 0.932129)"/>
</clipPath>
</defs>
</svg>
