<svg width="40" height="40" viewBox="0 0 40 40" fill="none" xmlns="http://www.w3.org/2000/svg">
<circle cx="20" cy="20" r="20" fill="#131313"/>
<path d="M18.5999 20.71C18.5061 20.617 18.4317 20.5064 18.381 20.3846C18.3302 20.2627 18.3041 20.132 18.3041 20C18.3041 19.868 18.3302 19.7373 18.381 19.6154C18.4317 19.4936 18.5061 19.383 18.5999 19.29L23.1899 14.71C23.2836 14.617 23.358 14.5064 23.4088 14.3846C23.4595 14.2627 23.4857 14.132 23.4857 14C23.4857 13.868 23.4595 13.7373 23.4088 13.6154C23.358 13.4936 23.2836 13.383 23.1899 13.29C23.0025 13.1037 22.749 12.9992 22.4849 12.9992C22.2207 12.9992 21.9672 13.1037 21.7799 13.29L17.1899 17.88C16.6281 18.4425 16.3125 19.205 16.3125 20C16.3125 20.795 16.6281 21.5575 17.1899 22.12L21.7799 26.71C21.9661 26.8947 22.2175 26.9989 22.4799 27C22.6115 27.0008 22.7419 26.9755 22.8638 26.9258C22.9856 26.876 23.0964 26.8027 23.1899 26.71C23.2836 26.617 23.358 26.5064 23.4088 26.3846C23.4595 26.2627 23.4857 26.132 23.4857 26C23.4857 25.868 23.4595 25.7373 23.4088 25.6154C23.358 25.4936 23.2836 25.383 23.1899 25.29L18.5999 20.71Z" fill="white"/>
</svg>
