<svg width="36" height="36" viewBox="0 0 36 36" fill="none" xmlns="http://www.w3.org/2000/svg">
<rect width="36" height="36" rx="4" fill="#7867E6"/>
<path d="M21.6652 11C20.9148 11.0117 20.1808 11.2211 19.5372 11.6073C18.8937 11.9934 18.3634 12.5425 18 13.1991C17.6366 12.5425 17.1063 11.9934 16.4628 11.6073C15.8192 11.2211 15.0852 11.0117 14.3348 11C13.1386 11.052 12.0116 11.5753 11.1999 12.4556C10.3883 13.3359 9.95808 14.5016 10.0032 15.6981C10.0032 20.213 17.3043 25.4275 17.6148 25.6488L18 25.9213L18.3852 25.6488C18.6957 25.4288 25.9968 20.213 25.9968 15.6981C26.0419 14.5016 25.6117 13.3359 24.8001 12.4556C23.9884 11.5753 22.8614 11.052 21.6652 11V11Z" fill="white"/>
</svg>
