<svg xmlns="http://www.w3.org/2000/svg" version="1.1" xmlns:xlink="http://www.w3.org/1999/xlink" xmlns:svgjs="http://svgjs.com/svgjs" width="512" height="512" x="0" y="0" viewBox="0 0 24 24" style="enable-background:new 0 0 512 512" xml:space="preserve"><g><path d="M1.625 5a.75.75 0 0 1 .75-.75h10a.75.75 0 0 1 0 1.5h-10a.75.75 0 0 1-.75-.75zm.75 4.75h10a.75.75 0 0 0 0-1.5h-10a.75.75 0 0 0 0 1.5zm0 4h6a.75.75 0 0 0 0-1.5h-6a.75.75 0 0 0 0 1.5zm20-6.47V3a1 1 0 0 0-1.316-.948l-4 1.333a1 1 0 0 0-.684.95v12.34a4.83 4.83 0 0 0-2.5-.675c-2.21 0-4 1.343-4 3s1.79 3 4 3 4-1.343 4-3V9.5l3.816-1.272a1 1 0 0 0 .684-.949z" fill="#ffffff" data-original="#000000" opacity="1"></path></g></svg>