<svg xmlns="http://www.w3.org/2000/svg" version="1.1" xmlns:xlink="http://www.w3.org/1999/xlink" xmlns:svgjs="http://svgjs.com/svgjs" width="512" height="512" x="0" y="0" viewBox="0 0 60 60" style="enable-background:new 0 0 512 512" xml:space="preserve"><g><path d="m5.296 50.767 3.94 3.94a.997.997 0 0 0 1.415 0l5.289-5.289c.103.006.205.03.309.03a5.674 5.674 0 0 0 3.666-1.35l21.51-18.137c.364.03.728.066 1.09.066 1.758 0 3.469-.376 5.045-1.075.022-.008.041-.02.062-.03a12.473 12.473 0 0 0 3.714-2.552c4.88-4.88 4.88-12.822 0-17.703C48.972 6.302 45.828 5 42.484 5s-6.487 1.302-8.851 3.667a12.472 12.472 0 0 0-3.594 9.913L11.905 40.088a5.661 5.661 0 0 0-1.334 3.99l-5.275 5.275a1 1 0 0 0 0 1.414zm36.245-22.784-9.522-9.521c-.12-1.318.02-2.615.37-3.847l12.998 12.997a10.56 10.56 0 0 1-3.846.371zm-6.494-17.902C37.034 8.094 39.675 7 42.484 7s5.451 1.094 7.438 3.081c4.1 4.102 4.1 10.773 0 14.875a10.498 10.498 0 0 1-2.517 1.846L33.2 12.597a10.485 10.485 0 0 1 1.847-2.516zM13.435 41.377l17.69-20.981 8.481 8.482-20.98 17.69a3.662 3.662 0 0 1-4.98-.212 3.662 3.662 0 0 1-.211-4.979zm-2.252 4.917c.269.529.605 1.033 1.048 1.477.445.444.953.776 1.483 1.045l-3.77 3.77-2.527-2.526z" fill="#ffffff" data-original="#000000" opacity="1"></path></g></svg>