<svg xmlns="http://www.w3.org/2000/svg" version="1.1" xmlns:xlink="http://www.w3.org/1999/xlink" xmlns:svgjs="http://svgjs.com/svgjs" width="512" height="512" x="0" y="0" viewBox="0 0 24 24" style="enable-background:new 0 0 512 512" xml:space="preserve"><g><path d="M16 11.75a.75.75 0 0 1-.53-1.281l3.251-3.251a.75.75 0 1 1 1.061 1.061L16.53 11.53a.744.744 0 0 1-.53.22zM13 12H2a2 2 0 0 0-2 2v8a2 2 0 0 0 2 2h11a2 2 0 0 0 2-2v-8a2 2 0 0 0-2-2zm-.5 10h-10a.5.5 0 0 1-.5-.5V16h11v5.5a.5.5 0 0 1-.5.5z" fill="#ffffff" data-original="#000000" opacity="1"></path><path d="M21 0H3C1.346 0 0 1.346 0 3v8.78A2.98 2.98 0 0 1 2 11V5h20v14c0 .552-.449 1-1 1h-5v2h5c1.654 0 3-1.346 3-3V3c0-1.654-1.346-3-3-3z" fill="#ffffff" data-original="#000000" opacity="1"></path><path d="M18.25 12h-2.5a.75.75 0 0 1-.75-.75v-2.5a.75.75 0 0 1 1.28-.53l2.5 2.5a.75.75 0 0 1-.53 1.28z" fill="#ffffff" data-original="#000000" opacity="1"></path></g></svg>