<svg xmlns="http://www.w3.org/2000/svg" version="1.1" xmlns:xlink="http://www.w3.org/1999/xlink" xmlns:svgjs="http://svgjs.com/svgjs" width="512" height="512" x="0" y="0" viewBox="0 0 24 24" style="enable-background:new 0 0 512 512" xml:space="preserve" class=""><g><path d="M4 13a1 1 0 0 1-1-1V9a3 3 0 0 1 3-3h13a1 1 0 0 1 0 2H6a1 1 0 0 0-1 1v3a1 1 0 0 1-1 1z" fill="#ffffff" data-original="#000000" class="" opacity="1"></path><path d="M17 11a1 1 0 0 1-.707-1.707L18.586 7l-2.293-2.293a1 1 0 0 1 1.414-1.414l3 3a1 1 0 0 1 0 1.414l-3 3A1 1 0 0 1 17 11zM18 18H5a1 1 0 0 1 0-2h13a1 1 0 0 0 1-1v-3a1 1 0 0 1 2 0v3a3 3 0 0 1-3 3z" fill="#ffffff" data-original="#000000" class="" opacity="1"></path><path d="M7 21a1 1 0 0 1-.707-.293l-3-3a1 1 0 0 1 0-1.414l3-3a1 1 0 0 1 1.414 1.414L5.414 17l2.293 2.293A1 1 0 0 1 7 21z" fill="#ffffff" data-original="#000000" class="" opacity="1"></path></g></svg>