<svg width="40" height="40" viewBox="0 0 40 40" fill="none" xmlns="http://www.w3.org/2000/svg">
<circle cx="20" cy="20" r="20" fill="#131313"/>
<path d="M23.3998 17.88L18.8098 13.29C18.6224 13.1037 18.369 12.9992 18.1048 12.9992C17.8406 12.9992 17.5872 13.1037 17.3998 13.29C17.3061 13.383 17.2317 13.4936 17.1809 13.6154C17.1301 13.7373 17.104 13.868 17.104 14C17.104 14.132 17.1301 14.2627 17.1809 14.3846C17.2317 14.5064 17.3061 14.617 17.3998 14.71L21.9998 19.29C22.0935 19.383 22.1679 19.4936 22.2187 19.6154C22.2695 19.7373 22.2956 19.868 22.2956 20C22.2956 20.132 22.2695 20.2627 22.2187 20.3846C22.1679 20.5064 22.0935 20.617 21.9998 20.71L17.3998 25.29C17.2115 25.477 17.1052 25.7311 17.1042 25.9965C17.1033 26.2618 17.2078 26.5167 17.3948 26.705C17.5818 26.8933 17.8359 26.9996 18.1013 27.0006C18.3666 27.0015 18.6215 26.897 18.8098 26.71L23.3998 22.12C23.9616 21.5575 24.2772 20.795 24.2772 20C24.2772 19.205 23.9616 18.4425 23.3998 17.88V17.88Z" fill="#7B7B7B"/>
</svg>
