<svg width="24" height="25" viewBox="0 0 24 25" fill="none" xmlns="http://www.w3.org/2000/svg">
<g clip-path="url(#clip0_1_248)">
<path d="M23.9998 23.515L17.7378 17.253C19.3644 15.2636 20.1642 12.7251 19.9716 10.1626C19.7791 7.60007 18.609 5.20957 16.7034 3.48556C14.7977 1.76155 12.3024 0.835934 9.73342 0.900166C7.16447 0.964398 4.71848 2.01357 2.9014 3.83066C1.08431 5.64775 0.0351378 8.09373 -0.029094 10.6627C-0.0933258 13.2316 0.832292 15.727 2.5563 17.6326C4.28031 19.5383 6.67081 20.7084 9.23334 20.9009C11.7959 21.0934 14.3344 20.2937 16.3238 18.667L22.5858 24.929L23.9998 23.515ZM9.99978 18.929C8.41753 18.929 6.87081 18.4599 5.55522 17.5808C4.23963 16.7017 3.21425 15.4523 2.60875 13.9905C2.00324 12.5287 1.84482 10.9202 2.1535 9.36832C2.46218 7.81647 3.22411 6.39101 4.34293 5.27219C5.46175 4.15337 6.88721 3.39144 8.43906 3.08276C9.99091 2.77408 11.5994 2.9325 13.0612 3.53801C14.5231 4.14351 15.7725 5.16889 16.6515 6.48448C17.5306 7.80007 17.9998 9.34679 17.9998 10.929C17.9974 13.05 17.1538 15.0835 15.654 16.5833C14.1542 18.083 12.1208 18.9267 9.99978 18.929Z" fill="white"/>
</g>
<defs>
<clipPath id="clip0_1_248">
<rect width="24" height="24" fill="white" transform="translate(0 0.928345)"/>
</clipPath>
</defs>
</svg>
